<?xml version="1.0" encoding="utf-8"?>
<!-- Generator: Adobe Illustrator 19.1.0, SVG Export Plug-In . SVG Version: 6.00 Build 0)  -->
<svg version="1.1" xmlns="http://www.w3.org/2000/svg" xmlns:xlink="http://www.w3.org/1999/xlink" x="0px" y="0px" width="64px"
	 height="64px" viewBox="0 0 64 64" style="enable-background:new 0 0 64 64;" xml:space="preserve">
<style type="text/css">
	.st0{fill:#EBF8B6;}
</style>
<g id="canvas">
</g>
<g id="outline">
</g>
<g id="iconBg">
	<path class="st0" d="M63.625,58.382H52.269V21.875h11.356V58.382z M57.879,17.396c-3.582,0-5.974-2.544-5.904-5.681
		c-0.07-3.289,2.322-5.74,5.986-5.74c3.652,0,5.968,2.456,6.039,5.74C64,14.852,61.614,17.396,57.879,17.396z M30.31,5.618H15.384
		L0,58.382h11.796l3.588-11.725h14.404l3.887,11.725h12.247L30.31,5.618z M17.398,34.931l2.99-9.275
		c0.827-2.914,1.571-5.318,2.316-8.313h0.147c0.75,2.996,1.647,5.323,2.538,8.313l3.136,9.275H17.398z"/>
</g>
<g id="iconFg">
</g>
<g id="colorAction">
</g>
<g id="colorImportance">
</g>
<g id="notificationBg">
</g>
<g id="notificationFg">
</g>
</svg>
