<?xml version="1.0" encoding="utf-8"?>
<!-- Generator: Adobe Illustrator 19.1.0, SVG Export Plug-In . SVG Version: 6.00 Build 0)  -->
<svg version="1.1" id="Layer_1" xmlns="http://www.w3.org/2000/svg" xmlns:xlink="http://www.w3.org/1999/xlink" x="0px" y="0px"
	 width="64px" height="64px" viewBox="-273 365 64 64" style="enable-background:new -273 365 64 64;" xml:space="preserve">
<style type="text/css">
	.st0{fill:#EBF8B6;}
</style>
<g id="canvas">
</g>
<g id="outline">
</g>
<g id="iconBg">
	<path class="st0" d="M-225.139,423.232c-4.885,0-9.221-1.056-12.043-2.587l2.053-8.299c2.133,1.285,6.555,2.811,9.989,2.811
		c3.493,0,4.944-1.216,4.944-3.125c0-1.899-1.141-2.811-5.477-4.261c-7.691-2.587-10.667-6.779-10.592-11.195
		c0-6.923,5.941-12.192,15.157-12.192c4.341,0,8.224,0.997,10.507,2.133l-2.053,8c-1.675-0.917-4.869-2.128-8.075-2.128
		c-2.811,0-4.405,1.141-4.405,3.045c0,1.749,1.435,2.661,6.005,4.267c7.084,2.432,10.06,6.016,10.129,11.488
		C-209,418.128-214.493,423.232-225.139,423.232z M-243.24,374.88c-3.419-2.746-7.723-4.112-14.875-4.112
		c-7.088,0-14.885,0.459-14.885,1.061v51.403h10.667v-19.115c0,0.155,2.045,0.229,3.576,0.229c6.842,0,12.521-1.675,16.473-5.408
		c3.05-2.901,4.634-7.152,4.634-12.176C-237.65,381.738-239.949,377.472-243.24,374.88z M-258.456,396.48
		c-1.674,0-2.885-0.075-3.877-0.299v-15.152c0.832-0.235,2.432-0.464,4.789-0.464c5.786,0,9.061,2.821,9.067,7.536
		C-248.477,393.36-252.285,396.48-258.456,396.48z"/>
</g>
<g id="iconFg">
</g>
<g id="colorAction">
</g>
<g id="colorImportance">
</g>
<g id="notificationBg">
</g>
<g id="notificationFg">
</g>
</svg>
