<?xml version="1.0" encoding="utf-8"?>
<!-- Generator: Adobe Illustrator 19.2.1, SVG Export Plug-In . SVG Version: 6.00 Build 0)  -->
<svg version="1.1" id="Layer_1" xmlns="http://www.w3.org/2000/svg" xmlns:xlink="http://www.w3.org/1999/xlink" x="0px" y="0px"
	 viewBox="0 0 64 64" style="enable-background:new 0 0 64 64;" xml:space="preserve">
<style type="text/css">
	.st0{fill:#E9EEB6;}
</style>
<g id="canvas">
</g>
<g id="outline">
</g>
<g id="iconFg">
</g>
<g id="colorAction">
</g>
<g id="colorImportance">
</g>
<g id="notificationBg">
</g>
<g id="notificationFg">
</g>
<g>
	<path class="st0" d="M23.8,41.7c0,5,0,9.9,0,14.9c0,3.9-2.5,7.1-6.7,7.4c-1.1,0.1-2.2-0.2-3.2-0.8c-0.7-0.4-0.9-1-0.4-1.8
		c0.3-0.6,0.8-1.1,0.9-1.8c0.6-2.2-0.4-4.3-2.6-5.3c-1.9-0.8-1.9-0.8-1.9-2.9c0-8.1,0-16.2,0-24.4c0-3.8,0.6-7.5,2.1-11
		c0.8-1.9,2.1-3.6,3.4-5.1c2.7-3.1,5.8-5.4,9.7-6.7C30.5,2.8,35.8,3,41,5.3c6.8,3.1,11,8.5,12.6,15.9c1.4,6.5,0.1,12.7-3.8,18.1
		c-3.5,4.9-8.3,7.8-14.1,8.8c-2.2,0.4-4.3,0.6-6.4-0.4c-2.2-1.1-3.5-2.8-3.9-5.3c-0.7-4.5,2.5-8,6.8-8.2c4.7-0.3,8-3.7,8-8.2
		c0-4.4-3.2-7.7-7.3-8.1c-3.8-0.4-6.8,1.6-8.3,4.8c-0.5,1.2-0.8,2.5-0.8,3.7C23.8,31.5,23.8,36.6,23.8,41.7z M32.2,36.9
		c-2.5-0.2-4.5,2.1-4.4,4.4c0.1,2.7,1.8,4.5,4.4,4.5s4.3-1.9,4.4-4.5C36.6,38.9,34.4,36.5,32.2,36.9z"/>
</g>
</svg>
