<?xml version="1.0" encoding="utf-8"?>
<!-- Generator: Adobe Illustrator 19.2.1, SVG Export Plug-In . SVG Version: 6.00 Build 0)  -->
<svg version="1.1" id="Layer_1" xmlns="http://www.w3.org/2000/svg" xmlns:xlink="http://www.w3.org/1999/xlink" x="0px" y="0px"
	 viewBox="0 0 64 64" style="enable-background:new 0 0 64 64;" xml:space="preserve">
<style type="text/css">
	.st0{fill:#EBF8B6;}
	.st1{fill:#39AC89;}
	.st2{fill:#E9F7B5;}
</style>
<g id="canvas">
</g>
<g id="outline">
</g>
<g id="iconBg">
	<path class="st0" d="M-225.1,423.2c-4.9,0-9.2-1.1-12-2.6l2.1-8.3c2.1,1.3,6.6,2.8,10,2.8c3.5,0,4.9-1.2,4.9-3.1
		c0-1.9-1.1-2.8-5.5-4.3c-7.7-2.6-10.7-6.8-10.6-11.2c0-6.9,5.9-12.2,15.2-12.2c4.3,0,8.2,1,10.5,2.1l-2.1,8
		c-1.7-0.9-4.9-2.1-8.1-2.1c-2.8,0-4.4,1.1-4.4,3c0,1.7,1.4,2.7,6,4.3c7.1,2.4,10.1,6,10.1,11.5C-209,418.1-214.5,423.2-225.1,423.2
		z M-243.2,374.9c-3.4-2.7-7.7-4.1-14.9-4.1c-7.1,0-14.9,0.5-14.9,1.1v51.4h10.7v-19.1c0,0.2,2,0.2,3.6,0.2c6.8,0,12.5-1.7,16.5-5.4
		c3.1-2.9,4.6-7.2,4.6-12.2C-237.6,381.7-239.9,377.5-243.2,374.9z M-258.5,396.5c-1.7,0-2.9-0.1-3.9-0.3V381
		c0.8-0.2,2.4-0.5,4.8-0.5c5.8,0,9.1,2.8,9.1,7.5C-248.5,393.4-252.3,396.5-258.5,396.5z"/>
</g>
<g id="iconFg">
</g>
<g id="colorAction">
</g>
<g id="colorImportance">
</g>
<g id="notificationBg">
</g>
<g id="notificationFg">
</g>
<g>
	<path class="st1" d="M63.8,17.4c-0.7,0.9-1.4,1.8-2.1,2.7c-0.2,0.1-0.3,0.2-0.4,0.4c-0.1,0.1-0.2,0.2-0.3,0.2c0,0,0,0,0,0
		c-2.6,1.9-5.4,3.6-7,6.6c-2.4,4.6-5.2,9-7.7,13.5c-1.5,2.6-3.1,5.1-4.3,7.8c0,0,0,0,0,0c-0.2,0-0.2,0.2-0.2,0.3c0,0,0,0,0,0
		c-0.3,0.1-0.3,0.3-0.3,0.5c0,0,0,0,0,0c-0.1,0.1-0.2,0.2-0.2,0.3c0,0,0,0,0,0C41,50,41,50.2,41,50.4c-2.6,4.3-5.6,8.4-8.4,12.6
		c-0.2,0.3-0.3,0.5-0.4,0.8c-0.1,0-0.2,0-0.3,0c-1.2-2.2-2.8-4.1-4.1-6.2c-1.5-2.4-3.1-4.8-4.7-7.2c0-0.2-0.1-0.5-0.3-0.6
		c0,0,0,0,0,0c-0.1-0.1-0.2-0.2-0.2-0.3c0,0,0,0,0,0c0-0.4-0.1-0.7-0.5-0.8c0,0,0,0,0,0c0-0.5-0.3-0.9-0.6-1.3
		C17.6,40.6,13.6,33.8,9.8,27c-1.6-2.9-4.3-4.5-6.8-6.3c0,0,0,0,0,0c0-0.2-0.2-0.4-0.4-0.4c0,0,0,0,0,0c-0.1-0.1-0.2-0.2-0.3-0.2
		c-0.7-0.9-1.4-1.8-2.1-2.7c0-0.2,0-0.4,0-0.5c0.2,0.2,0.3-0.2,0.5-0.2c2.5,2,5,3.9,7.5,5.9c0.4,0.4,0.8,0.8,1.4,0
		c2.5-3.5,5-7.1,7.5-10.6c0.3-0.4,0.4-0.8-0.1-1.1C14.2,9.3,11.5,7.7,8.8,6c0.1-1,0.6-1.3,1.5-1.2c2.7,1.7,5.4,3.3,8.1,5
		c0.5,0.3,0.9,0.3,1.4,0.3c8.1,0,16.3,0,24.4,0c0.5,0,1,0,1.4-0.3c2.7-1.7,5.4-3.4,8-5.1c0.8,0,1.3,0.3,1.6,1
		c-2.6,1.6-5.2,3.3-7.9,4.9c-0.5,0.3-1,0.5-0.4,1.3c2.5,3.4,5,6.9,7.4,10.4c0.6,0.8,0.9,0.6,1.6,0.1c2.4-2,4.9-3.9,7.4-5.8
		c0.2,0,0.3,0.1,0.5,0.1C63.8,17,63.8,17.2,63.8,17.4z M10.8,25.5C17.9,37.9,24.9,50.1,32,62.4c0.3-0.5,0.5-0.7,0.7-1
		c6.7-11.6,13.3-23.2,20-34.8c0.6-1.1,0.3-1.2-0.7-1.2c-13.3,0-26.6,0-39.9,0C11.7,25.4,11.4,25.5,10.8,25.5z M10.7,23.7
		c14.3,0,28.4,0,42.7,0c-2.8-4-5.5-7.8-8.2-11.6c-0.3-0.4-0.7-0.4-1.1-0.4c-8,0-16,0-24,0c-0.5,0-0.9,0.1-1.2,0.5
		C16.2,16,13.5,19.8,10.7,23.7z"/>
	<path class="st2" d="M53.7,4.8c-2.7,1.7-5.4,3.4-8,5.1c-0.5,0.3-0.9,0.3-1.4,0.3c-8.1,0-16.3,0-24.4,0c-0.5,0-1,0-1.4-0.3
		c-2.7-1.7-5.4-3.3-8.1-5c0.3-0.5,0.8-0.6,1.3-0.9c2.6-1.3,5.4-2.4,7.9-3.8c8.3,0,16.7,0,25,0c0.4,0.4,1,0.6,1.5,0.8
		C48.5,2.3,51.3,3.2,53.7,4.8z"/>
	<path class="st2" d="M3,20.7c2.5,1.8,5.2,3.4,6.8,6.3c3.8,6.8,7.8,13.6,11.6,20.4c0.2,0.4,0.6,0.8,0.6,1.3c-0.8-0.1-1-0.9-1.4-1.5
		c-5.7-8.3-11.4-16.6-17-25C3.3,21.8,2.7,21.4,3,20.7z"/>
	<path class="st2" d="M22.1,48.7c0.4,0.2,0.5,0.5,0.5,0.8C22.1,49.4,21.9,49.2,22.1,48.7z"/>
	<path class="st2" d="M22.7,49.8c0.3,0.1,0.3,0.3,0.3,0.6C22.8,50.3,22.7,50.1,22.7,49.8z"/>
	<path class="st2" d="M2.6,20.3c0.2,0,0.4,0.2,0.4,0.4C2.6,20.8,2.6,20.6,2.6,20.3z"/>
	<path class="st2" d="M22.5,49.5c0.1,0.1,0.2,0.2,0.2,0.3C22.6,49.8,22.5,49.7,22.5,49.5z"/>
	<path class="st2" d="M2.3,20.1c0.1,0.1,0.2,0.2,0.3,0.2C2.5,20.2,2.4,20.2,2.3,20.1z"/>
	<path class="st2" d="M42,48.7c1.2-2.7,2.9-5.2,4.3-7.8c2.5-4.5,5.3-8.9,7.7-13.5c1.6-3.1,4.4-4.7,7-6.6c0.2,0.4-0.1,0.7-0.3,0.9
		c-6,8.8-12.1,17.6-18.1,26.5C42.5,48.4,42.4,48.7,42,48.7z"/>
	<path class="st2" d="M41,50.4c0-0.2,0.1-0.5,0.3-0.6C41.3,50.1,41.2,50.3,41,50.4z"/>
	<path class="st2" d="M41.5,49.6c0-0.2,0.1-0.4,0.3-0.5C41.8,49.3,41.8,49.5,41.5,49.6z"/>
	<path class="st2" d="M61.3,20.5c0-0.2,0.2-0.3,0.4-0.4C61.7,20.3,61.6,20.5,61.3,20.5z"/>
	<path class="st2" d="M61.1,20.8c0.1-0.1,0.2-0.2,0.3-0.2C61.3,20.7,61.3,20.8,61.1,20.8z"/>
	<path class="st2" d="M41.8,49c0-0.2,0-0.3,0.2-0.3C42,48.9,41.9,49,41.8,49z"/>
	<path class="st2" d="M41.3,49.9c0.1-0.1,0.2-0.2,0.2-0.3C41.4,49.7,41.3,49.8,41.3,49.9z"/>
	<path class="st2" d="M10.8,25.5c0.6,0,0.9-0.1,1.3-0.1c13.3,0,26.6,0,39.9,0c1.1,0,1.4,0.1,0.7,1.2c-6.7,11.6-13.3,23.2-20,34.8
		c-0.2,0.3-0.4,0.6-0.7,1C24.9,50.1,17.9,37.9,10.8,25.5z"/>
	<path class="st2" d="M10.7,23.7c2.8-3.9,5.5-7.7,8.2-11.5c0.3-0.4,0.7-0.5,1.2-0.5c8,0,16,0,24,0c0.4,0,0.8,0,1.1,0.4
		c2.7,3.8,5.4,7.6,8.2,11.6C39.1,23.7,25,23.7,10.7,23.7z"/>
	<path class="st2" d="M55.3,5.8c2.8,3.5,5.5,7.2,8.1,10.9c-2.5,1.9-4.9,3.8-7.4,5.8c-0.6,0.5-1,0.7-1.6-0.1C52,18.9,49.5,15.4,47,12
		c-0.6-0.8-0.1-1,0.4-1.3C50,9.1,52.6,7.4,55.3,5.8z"/>
	<path class="st2" d="M0.7,16.7c2.5-3.4,5-6.9,7.5-10.3C8.4,6.2,8.6,6.2,8.8,6c2.7,1.6,5.4,3.2,8.2,4.8c0.5,0.3,0.5,0.6,0.1,1.1
		c-2.5,3.5-5,7-7.5,10.6c-0.6,0.8-0.9,0.3-1.4,0C5.7,20.6,3.2,18.6,0.7,16.7z"/>
</g>
</svg>
