<?xml version="1.0" encoding="utf-8"?>
<!-- Generator: Adobe Illustrator 19.1.0, SVG Export Plug-In . SVG Version: 6.00 Build 0)  -->
<svg version="1.1" xmlns="http://www.w3.org/2000/svg" xmlns:xlink="http://www.w3.org/1999/xlink" x="0px" y="0px" width="64px"
	 height="64px" viewBox="0 0 64 64" style="enable-background:new 0 0 64 64;" xml:space="preserve">
<style type="text/css">
	.st0{fill:#445555;}
</style>
<g id="canvas">
</g>
<g id="outline">
</g>
<g id="iconBg">
	<path class="st0" d="M32.482,0.007C14.578-0.24,0.351,14.051,0.007,31.328c-0.36,18.045,14.179,32.687,31.977,32.668
		c17.526,0.018,31.632-14.028,32.008-31.261C64.384,14.777,50.061,0.249,32.482,0.007z M23.446,42.534
		c0.002,0.339-0.086,0.431-0.422,0.419c-0.753-0.027-1.508-0.026-2.26-0.001c-0.358,0.012-0.474-0.076-0.473-0.459
		c0.015-3.862,0.009-7.724,0.009-11.586c0-3.876,0.007-7.751-0.01-11.627c-0.002-0.404,0.116-0.491,0.494-0.475
		c0.739,0.03,1.48,0.028,2.22,0c0.347-0.013,0.445,0.07,0.444,0.434c-0.014,4.965-0.009,9.931-0.009,14.896
		C23.438,36.936,23.432,39.735,23.446,42.534z M44.386,42.952c-4.805-0.01-9.611-0.007-14.416-0.007
		c-0.821,0-1.642-0.008-2.463,0.005c-0.247,0.004-0.352-0.074-0.318-0.322c0.005-0.04,0.006-0.081,0-0.121
		c-0.144-0.977,0.221-1.758,0.776-2.561c4.157-6.019,8.273-12.066,12.399-18.106c0.073-0.107,0.232-0.218,0.179-0.34
		c-0.071-0.161-0.264-0.07-0.4-0.07c-3.769-0.005-7.538-0.013-11.307,0.008c-0.428,0.002-0.514-0.125-0.492-0.514
		c0.033-0.563,0.03-1.131,0-1.695c-0.017-0.336,0.079-0.423,0.418-0.422c3.554,0.013,7.107,0.008,10.661,0.008
		c1.615,0,3.23,0.008,4.846-0.007c0.298-0.003,0.361,0.077,0.391,0.376c0.105,1.041-0.216,1.885-0.817,2.755
		c-4.137,5.983-8.221,11.846-12.319,17.857C31.46,39.89,31.359,40,31.37,40c1.608,0,10.303,0.011,13.062,0
		c0.303-0.001,0.424,0.286,0.408,0.62c-0.03,0.604-0.035,1.252,0.001,1.856C44.865,42.855,44.725,42.953,44.386,42.952z"/>
</g>
<g id="iconFg">
</g>
<g id="colorAction">
</g>
<g id="colorImportance">
</g>
<g id="notificationBg">
</g>
<g id="notificationFg">
</g>
</svg>
